PathFileType	4	(x/y/z)	S08_PSF_T11
DataRate	CameraRate	NumFrames	NumMarkers	Units	OrigDataRate	OrigDataStartFrame	OrigNumFrames
240	240	7	51	mm	240	221	440
Frame#	Time	Sternum			R.Acromium			L.Acromium			Top.Head			R.ASIS			L.ASIS			R.PSIS			L.PSIS			R.Great.Tro			L.Great.Tro			R.Iliac.Crest			L.Iliac.Crest			V.Sacral			R.Thigh.Upper.Post			R.Thigh.Lower.Ant			R.Thigh.Lower.Post			R.Thigh.Upper.Ant			R.Knee.Lat			R.Knee.Med			R.Shank.Upper.Post			R.Shank.Lower.Ant			R.Shank.Lower.Post			R.Shank.Upper.Ant			R.Ankle.Lat			R.Ankle.Med			R.Heel.Upper			R.Heel.Med			R.Heel.Lat			R.Toe.Lat			R.Toe.Med			R.Toe.Tip			L.Thigh.Upper.Post			L.Thigh.Lower.Ant			L.Thigh.Lower.Post			L.Thigh.Upper.Ant			L.Knee.Lat			L.Knee.Med			L.Shank.Upper.Post			L.Shank.Lower.Ant			L.Shank.Lower.Post			L.Shank.Upper.Ant			L.Ankle.Lat			L.Ankle.Med			L.Heel.Upper			L.Heel.Med			L.Heel.Lat			L.Toe.Lat			L.Toe.Med			L.Toe.Tip			Cervical.Spine			Back			
		X1	Y1	Z1	X2	Y2	Z2	X3	Y3	Z3	X4	Y4	Z4	X5	Y5	Z5	X6	Y6	Z6	X7	Y7	Z7	X8	Y8	Z8	X9	Y9	Z9	X10	Y10	Z10	X11	Y11	Z11	X12	Y12	Z12	X13	Y13	Z13	X14	Y14	Z14	X15	Y15	Z15	X16	Y16	Z16	X17	Y17	Z17	X18	Y18	Z18	X19	Y19	Z19	X20	Y20	Z20	X21	Y21	Z21	X22	Y22	Z22	X23	Y23	Z23	X24	Y24	Z24	X25	Y25	Z25	X26	Y26	Z26	X27	Y27	Z27	X28	Y28	Z28	X29	Y29	Z29	X30	Y30	Z30	X31	Y31	Z31	X32	Y32	Z32	X33	Y33	Z33	X34	Y34	Z34	X35	Y35	Z35	X36	Y36	Z36	X37	Y37	Z37	X38	Y38	Z38	X39	Y39	Z39	X40	Y40	Z40	X41	Y41	Z41	X42	Y42	Z42	X43	Y43	Z43	X44	Y44	Z44	X45	Y45	Z45	X46	Y46	Z46	X47	Y47	Z47	X48	Y48	Z48	X49	Y49	Z49	X50	Y50	Z50	X51	Y51	Z51	

221	0.91667	-305.81	1227.9	332.3	-400.63	1469.8	512.35	-435.29	1494.5	178.75	-411.98	1781.8	358.76	-331.73	1016.1	447.99	-333.84	1020.3	215.61	-533.16	1040.9	370.2	-530.93	1043.4	276.87	-409.75	910.73	515.98	-412.54	911.03	146.02	-426.23	1086.1	491.68	-428.17	1099.5	184.48	-548.27	1001.1	323.11	-465.05	719.42	497.98	-406.01	610.46	460.14	-473.13	630.64	476.94	-388.86	701.76	484.25	-459.52	517.53	450.13	-483.32	528.52	324.07	-555.8	344.16	448.13	-501.98	275.71	426.68	-566	268.63	436.51	-491.62	351.79	439.79	-582.73	99.958	389.79	-550.23	118.43	315.1	-631.01	67.611	338.45	-617.18	40.758	312.27	-627.3	43.649	373.17	NaN	NaN	NaN	-430.44	45.642	311.85	-368.44	60.338	362.82	-330.38	711	159.68	-213.85	665.43	180.13	-277.74	637.78	175.73	-262.71	738.19	158.31	-224.07	553.8	193.6	-217.69	550.23	318.63	-286.7	381.52	184.73	-223.99	290.45	200.64	NaN	NaN	NaN	-223.37	365.99	188.76	-282.15	134.78	202.5	-254.64	137.31	286.8	-334.98	105.26	252.47	-320.82	71.176	282.15	-329.19	78.702	218.87	-156.02	64.437	180.09	-132.32	67.37	292.4	-71.705	85.67	242.16	-481.91	1527.2	345.22	-538.05	1246.2	357.77
222	0.92083	-300.53	1226.9	332.45	-395.25	1469	512.3	-429.48	1493.6	178.6	-406.47	1781	358.53	-326.91	1015.3	448.21	-328.44	1019.5	215.8	-528.08	1040.1	369.91	-525.66	1042.7	276.58	-405.46	910.1	516.01	-407.07	910.3	146.02	-421.42	1085.4	491.63	-422.62	1098.7	184.4	-543.08	1000.4	322.75	-461.81	719.17	497.92	-403.26	609.86	460.29	-470.32	630.42	476.81	-385.73	701.09	484.4	-457.29	517.17	450.2	-480.69	528.26	324.02	-554.44	344.3	448.01	-500.93	275.57	426.6	-564.99	268.83	436.38	-490.18	351.59	439.75	-582.47	100.21	389.58	-549.89	118.55	314.91	-630.9	67.708	338.29	-617.04	40.785	312.16	-627.23	43.796	373.05	NaN	NaN	NaN	-430.24	45.526	311.85	-368.29	60.01	362.87	-325.59	710.07	159.68	-209.17	664.3	180.31	-273.09	636.76	175.76	-257.88	737.16	158.47	-219.02	552.79	193.76	-213.14	549.11	318.79	-277.51	378.73	184.74	-212.47	289.39	200.92	NaN	NaN	NaN	-213.81	364.9	189.01	-266.22	132.06	202.7	-239.14	135.43	287.19	-318.48	101.06	252.45	-303.37	67.458	282.37	-311.72	74.614	219.05	-138.11	65.176	180.97	-114.94	69.041	293.43	-54.707	88.874	243.33	-476.35	1526.4	345.07	-532.8	1245.5	357.59
223	0.925	-295.24	1225.9	332.59	-389.86	1468.2	512.24	-423.65	1492.6	178.45	-400.96	1780.2	358.29	-322.08	1014.4	448.43	-323.01	1018.7	215.98	-522.99	1039.4	369.61	-520.36	1042	276.27	-401.14	909.46	516.04	-401.59	909.52	146.03	-416.59	1084.6	491.57	-417.04	1098	184.3	-537.87	999.62	322.39	-458.52	718.89	497.85	-400.46	609.24	460.45	-467.45	630.18	476.68	-382.56	700.41	484.54	-454.98	516.79	450.26	-477.99	527.98	323.95	-553	344.44	447.88	-499.83	275.41	426.5	-563.93	269.02	436.24	-488.69	351.36	439.68	-582.19	100.47	389.37	-549.57	118.67	314.71	-630.78	67.812	338.1	-616.9	40.816	312.04	-627.14	43.955	372.91	NaN	NaN	NaN	-430.03	45.404	311.85	-368.13	59.667	362.91	-320.89	709.07	159.65	-204.6	663.06	180.46	-268.55	635.66	175.76	-253.12	736.04	158.61	-214.08	551.68	193.9	-208.69	547.89	318.94	-268.39	375.98	184.76	-201.06	288.42	201.21	NaN	NaN	NaN	-204.36	363.84	189.27	-250.33	129.52	202.92	-223.73	133.75	287.6	-302.02	97.077	252.43	-285.97	63.977	282.61	-294.28	70.767	219.24	-120.35	66.149	181.9	-97.758	70.928	294.52	-37.93	92.283	244.55	-470.79	1525.7	344.91	-527.55	1244.8	357.41
224	0.92917	-289.94	1224.9	332.72	-384.46	1467.4	512.16	-417.8	1491.7	178.28	-395.45	1779.4	358.04	-317.23	1013.6	448.64	-317.55	1017.9	216.15	-517.86	1038.6	369.31	-515.04	1041.2	275.96	-396.79	908.79	516.06	-396.1	908.7	146.05	-411.74	1083.8	491.51	-411.42	1097.2	184.2	-532.64	998.84	322.03	-455.17	718.58	497.78	-397.58	608.61	460.6	-464.51	629.91	476.54	-379.32	699.72	484.68	-452.6	516.4	450.3	-475.22	527.69	323.87	-551.5	344.58	447.74	-498.68	275.26	426.39	-562.82	269.22	436.08	-487.13	351.13	439.6	-581.89	100.75	389.13	-549.26	118.8	314.49	-630.65	67.925	337.9	-616.76	40.852	311.9	-627.06	44.126	372.75	NaN	NaN	NaN	-429.82	45.276	311.84	-367.97	59.31	362.96	-316.25	708.01	159.58	-200.12	661.72	180.58	-264.11	634.46	175.73	-248.43	734.82	158.73	-209.25	550.48	194.01	-204.36	546.58	319.07	-259.33	373.26	184.78	-189.76	287.54	201.49	NaN	NaN	NaN	-195.02	362.82	189.52	-234.52	127.18	203.16	-208.45	132.26	288.01	-285.64	93.325	252.42	-268.65	60.739	282.86	-276.89	67.169	219.45	-102.76	67.348	182.87	-80.804	73.019	295.64	-21.396	95.88	245.82	-465.22	1524.9	344.74	-522.28	1244.1	357.21
225	0.93333	-284.62	1223.9	332.84	-379.06	1466.5	512.07	-411.93	1490.7	178.09	-389.96	1778.5	357.78	-312.37	1012.7	448.85	-312.06	1017	216.32	-512.72	1037.8	368.99	-509.69	1040.4	275.64	-392.41	908.11	516.08	-390.61	907.85	146.07	-406.88	1083	491.44	-405.77	1096.3	184.09	-527.39	998.04	321.67	-451.76	718.25	497.7	-394.64	607.95	460.75	-461.5	629.62	476.4	-376.02	699	484.82	-450.14	515.99	450.33	-472.36	527.37	323.77	-549.93	344.72	447.58	-497.46	275.09	426.27	-561.64	269.41	435.91	-485.49	350.87	439.48	-581.58	101.04	388.88	-548.95	118.94	314.26	-630.5	68.05	337.68	-616.62	40.897	311.74	-626.96	44.311	372.57	NaN	NaN	NaN	-429.61	45.141	311.82	-367.8	58.938	363	-311.69	706.88	159.49	-195.72	660.27	180.68	-259.76	633.19	175.68	-243.79	733.51	158.81	-204.52	549.21	194.09	-200.12	545.19	319.2	-250.36	370.59	184.82	-178.6	286.74	201.77	NaN	NaN	NaN	-185.8	361.85	189.77	-218.82	125.03	203.44	-193.3	130.95	288.43	-269.37	89.811	252.43	-251.45	57.749	283.14	-259.6	63.826	219.68	-85.37	68.761	183.87	-64.102	75.295	296.79	-5.1274	99.647	247.13	-459.65	1524	344.55	-516.99	1243.4	357.01
226	0.9375	-279.28	1222.9	332.96	-373.66	1465.6	511.97	-406.04	1489.7	177.9	-384.46	1777.6	357.5	-307.49	1011.8	449.06	-306.55	1016.1	216.48	-507.54	1037	368.67	-504.31	1039.6	275.32	-388	907.4	516.09	-385.09	906.97	146.09	-401.99	1082.2	491.36	-400.09	1095.5	183.98	-522.11	997.23	321.31	-448.29	717.89	497.62	-391.61	607.28	460.88	-458.42	629.31	476.24	-372.65	698.27	484.95	-447.59	515.56	450.33	-469.42	527.04	323.66	-548.29	344.85	447.41	-496.18	274.92	426.12	-560.42	269.61	435.72	-483.79	350.61	439.34	-581.25	101.35	388.61	-548.64	119.08	314.01	-630.34	68.191	337.44	-616.48	40.954	311.56	-626.87	44.511	372.37	NaN	NaN	NaN	-429.4	45.001	311.79	-367.62	58.551	363.03	-307.18	705.69	159.37	-191.4	658.74	180.75	-255.49	631.85	175.61	-239.21	732.12	158.87	-199.89	547.86	194.14	-195.98	543.71	319.31	-241.46	367.97	184.87	-167.58	286.03	202.05	NaN	NaN	NaN	-176.71	360.91	190.01	-203.25	123.09	203.74	-178.32	129.84	288.86	-253.24	86.543	252.46	-234.39	55.01	283.44	-242.44	60.745	219.93	-68.221	70.374	184.89	-47.675	77.74	297.97	10.853	103.56	248.46	-454.07	1523.2	344.34	-511.7	1242.6	356.8
227	0.94167	-273.93	1221.8	333.06	-368.24	1464.7	511.86	-400.14	1488.7	177.69	-378.97	1776.7	357.21	-302.59	1010.9	449.26	-301	1015.2	216.64	-502.35	1036.2	368.33	-498.9	1038.7	274.99	-383.55	906.67	516.1	-379.56	906.07	146.12	-397.08	1081.4	491.28	-394.4	1094.6	183.86	-516.82	996.39	320.94	-444.74	717.5	497.53	-388.51	606.59	461	-455.25	628.97	476.07	-369.21	697.52	485.08	-444.94	515.12	450.31	-466.4	526.68	323.53	-546.58	344.99	447.22	-494.85	274.75	425.96	-559.13	269.8	435.51	-482.02	350.33	439.18	-580.91	101.68	388.32	-548.32	119.23	313.75	-630.17	68.35	337.18	-616.32	41.027	311.36	-626.76	44.729	372.15	NaN	NaN	NaN	-429.18	44.857	311.77	-367.43	58.151	363.07	-302.72	704.46	159.22	-187.14	657.12	180.8	-251.29	630.44	175.51	-234.66	730.67	158.91	-195.34	546.44	194.16	-191.92	542.17	319.4	-232.65	365.41	184.94	-156.71	285.41	202.33	NaN	NaN	NaN	-167.74	360.02	190.25	-187.84	121.34	204.08	-163.52	128.91	289.3	-237.27	83.521	252.53	-217.51	52.524	283.77	-225.44	57.925	220.22	-51.341	72.171	185.95	-31.547	80.332	299.16	26.523	107.6	249.81	-448.49	1522.3	344.13	-506.38	1241.8	356.58
